<?xml version="1.0" encoding="UTF-8"?>
<svg version="1.1" xmlns="http://www.w3.org/2000/svg" width="96" height="96">
<path d="M0 0 C2.68035603 1.23379102 3.58900476 3.11324179 5.06860352 5.62084961 C5.86717773 6.92989258 5.86717773 6.92989258 6.68188477 8.26538086 C7.75610352 10.80834961 7.75610352 10.80834961 7.65454102 12.96069336 C5.75273784 16.87179293 1.36301581 18.64322475 -2.24389648 20.80834961 C-3.10096191 21.3369458 -3.10096191 21.3369458 -3.9753418 21.8762207 C-5.82663817 23.01521531 -7.68917976 24.1331747 -9.55639648 25.24584961 C-10.15476318 25.61226562 -10.75312988 25.97868164 -11.36962891 26.35620117 C-13.77627767 27.75616266 -15.63471354 28.8115728 -18.45874023 28.79663086 C-20.89304092 27.44897643 -21.97252045 25.87883225 -23.49389648 23.55834961 C-24.01467773 22.79006836 -24.53545898 22.02178711 -25.07202148 21.23022461 C-26.45029253 18.38179778 -26.72111437 16.93578869 -26.24389648 13.80834961 C-24.10424805 11.93969727 -24.10424805 11.93969727 -21.13452148 10.22241211 C-20.06975586 9.60237305 -19.00499023 8.98233398 -17.90795898 8.34350586 C-16.78131836 7.7131543 -15.65467773 7.08280273 -14.49389648 6.43334961 C-13.38272461 5.77979492 -12.27155273 5.12624023 -11.12670898 4.45288086 C-2.91138444 -0.2486603 -2.91138444 -0.2486603 0 0 Z M-6.93920898 8.99584961 C-8.01235352 9.67260742 -8.01235352 9.67260742 -9.10717773 10.36303711 C-9.85354492 10.83999023 -10.59991211 11.31694336 -11.36889648 11.80834961 C-12.12299805 12.28530273 -12.87709961 12.76225586 -13.65405273 13.25366211 C-15.51990687 14.43458245 -17.38301657 15.61961218 -19.24389648 16.80834961 C-18.58389648 18.45834961 -17.92389648 20.10834961 -17.24389648 21.80834961 C-14.98864303 20.73499369 -12.740141 19.65027403 -10.49389648 18.55834961 C-9.85967773 18.25799805 -9.22545898 17.95764648 -8.57202148 17.64819336 C-4.82702226 15.81470416 -1.99585765 13.949477 0.75610352 10.80834961 C0.09610352 9.48834961 -0.56389648 8.16834961 -1.24389648 6.80834961 C-3.79320143 6.80834961 -4.79449762 7.63412811 -6.93920898 8.99584961 Z " fill="#000000" transform="translate(34.243896484375,15.191650390625)"/>
<path d="M0 0 C0.66209473 -0.00095673 1.32418945 -0.00191345 2.00634766 -0.00289917 C3.40852961 -0.00358076 4.8107147 -0.00172792 6.21289062 0.00244141 C8.36595713 0.00779004 10.51881502 0.0024958 12.671875 -0.00390625 C14.03125046 -0.00324546 15.3906258 -0.00196429 16.75 0 C18.61785156 0.00169189 18.61785156 0.00169189 20.5234375 0.00341797 C23.375 0.1328125 23.375 0.1328125 24.375 1.1328125 C24.47475032 3.64417354 24.51382183 6.12184665 24.5 8.6328125 C24.50580078 9.68662109 24.50580078 9.68662109 24.51171875 10.76171875 C24.50161378 16.00619872 24.50161378 16.00619872 23.375 17.1328125 C21.16849344 17.23293651 18.95877614 17.2636243 16.75 17.265625 C16.08790527 17.26658173 15.42581055 17.26753845 14.74365234 17.26852417 C13.34147039 17.26920576 11.9392853 17.26735292 10.53710938 17.26318359 C8.38404287 17.25783496 6.23118498 17.2631292 4.078125 17.26953125 C2.71874954 17.26887046 1.3593742 17.26758929 0 17.265625 C-1.24523437 17.26449707 -2.49046875 17.26336914 -3.7734375 17.26220703 C-6.625 17.1328125 -6.625 17.1328125 -7.625 16.1328125 C-7.72475032 13.62145146 -7.76382183 11.14377835 -7.75 8.6328125 C-7.75386719 7.93027344 -7.75773437 7.22773437 -7.76171875 6.50390625 C-7.74826399 -0.47911407 -6.75907568 0.00612235 0 0 Z M-1.625 5.1328125 C-1.625 7.1128125 -1.625 9.0928125 -1.625 11.1328125 C5.305 11.1328125 12.235 11.1328125 19.375 11.1328125 C19.375 9.1528125 19.375 7.1728125 19.375 5.1328125 C12.445 5.1328125 5.515 5.1328125 -1.625 5.1328125 Z " fill="#000000" transform="translate(31.625,57.8671875)"/>
<path d="M0 0 C0.66209473 -0.00095673 1.32418945 -0.00191345 2.00634766 -0.00289917 C3.40852961 -0.00358076 4.8107147 -0.00172792 6.21289062 0.00244141 C8.36595713 0.00779004 10.51881502 0.0024958 12.671875 -0.00390625 C14.03125046 -0.00324546 15.3906258 -0.00196429 16.75 0 C18.61785156 0.00169189 18.61785156 0.00169189 20.5234375 0.00341797 C23.375 0.1328125 23.375 0.1328125 24.375 1.1328125 C24.47475032 3.64417354 24.51382183 6.12184665 24.5 8.6328125 C24.50580078 9.68662109 24.50580078 9.68662109 24.51171875 10.76171875 C24.50161378 16.00619872 24.50161378 16.00619872 23.375 17.1328125 C21.16849344 17.23293651 18.95877614 17.2636243 16.75 17.265625 C16.08790527 17.26658173 15.42581055 17.26753845 14.74365234 17.26852417 C13.34147039 17.26920576 11.9392853 17.26735292 10.53710938 17.26318359 C8.38404287 17.25783496 6.23118498 17.2631292 4.078125 17.26953125 C2.71874954 17.26887046 1.3593742 17.26758929 0 17.265625 C-1.24523438 17.26449707 -2.49046875 17.26336914 -3.7734375 17.26220703 C-6.625 17.1328125 -6.625 17.1328125 -7.625 16.1328125 C-7.72475032 13.62145146 -7.76382183 11.14377835 -7.75 8.6328125 C-7.75386719 7.93027344 -7.75773437 7.22773437 -7.76171875 6.50390625 C-7.74826399 -0.47911407 -6.75907568 0.00612235 0 0 Z M-2.625 6.1328125 C-2.625 8.1128125 -2.625 10.0928125 -2.625 12.1328125 C4.305 12.1328125 11.235 12.1328125 18.375 12.1328125 C18.375 10.1528125 18.375 8.1728125 18.375 6.1328125 C11.445 6.1328125 4.515 6.1328125 -2.625 6.1328125 Z " fill="#000000" transform="translate(48.625,38.8671875)"/>
<path d="M0 0 C10.23 0 20.46 0 31 0 C31.020625 2.619375 31.04125 5.23875 31.0625 7.9375 C31.071604 8.7637085 31.08070801 9.58991699 31.09008789 10.44116211 C31.09723945 12.29433759 31.0502852 14.14749308 31 16 C29.14285943 17.85714057 26.07492951 17.13048681 23.59375 17.1328125 C22.29308594 17.13410156 20.99242187 17.13539062 19.65234375 17.13671875 C18.97155762 17.13462402 18.29077148 17.1325293 17.58935547 17.13037109 C15.50871485 17.1250224 13.42829011 17.1303168 11.34765625 17.13671875 C9.39666016 17.13478516 9.39666016 17.13478516 7.40625 17.1328125 C6.20291016 17.13168457 4.99957031 17.13055664 3.75976562 17.12939453 C1 17 1 17 0 16 C-0.07325436 13.3013095 -0.09222351 10.63497444 -0.0625 7.9375 C-0.041875 5.318125 -0.02125 2.69875 0 0 Z M5 5 C5 6.98 5 8.96 5 11 C11.93 11 18.86 11 26 11 C26 9.02 26 7.04 26 5 C19.07 5 12.14 5 5 5 Z " fill="#000000" transform="translate(59,58)"/>
<path d="M0 0 C4.39663033 -0.02291238 8.79305488 -0.04283833 13.18969727 -0.05493164 C14.68644918 -0.05997121 16.18319616 -0.06680287 17.67993164 -0.07543945 C19.82699807 -0.08752159 21.97399962 -0.09323191 24.12109375 -0.09765625 C26.06133423 -0.10551147 26.06133423 -0.10551147 28.04077148 -0.11352539 C31 0 31 0 32 1 C32.09909302 3.33160055 32.12970504 5.66629942 32.125 8 C32.12886719 9.918125 32.12886719 9.918125 32.1328125 11.875 C32 15 32 15 31 16 C28.70848583 16.08790975 26.41427476 16.10694038 24.12109375 16.09765625 C23.09110008 16.09553383 23.09110008 16.09553383 22.04029846 16.09336853 C19.83932199 16.08775479 17.63844591 16.07520007 15.4375 16.0625 C13.94856917 16.05748676 12.45963676 16.05292355 10.97070312 16.04882812 C7.31373195 16.03863021 3.65697883 16.01905779 0 16 C0 10.72 0 5.44 0 0 Z M5 5 C5 6.98 5 8.96 5 11 C11.93 11 18.86 11 26 11 C26 9.02 26 7.04 26 5 C19.07 5 12.14 5 5 5 Z " fill="#000000" transform="translate(41,77)"/>
<path d="M0 0 C10.23 0 20.46 0 31 0 C31 5.28 31 10.56 31 16 C20.77 16 10.54 16 0 16 C-1.36538938 13.26922124 -1.13231826 11.04439633 -1.125 8 C-1.12757813 6.9275 -1.13015625 5.855 -1.1328125 4.75 C-1 2 -1 2 0 0 Z M5 5 C5 6.98 5 8.96 5 11 C11.93 11 18.86 11 26 11 C26 9.02 26 7.04 26 5 C19.07 5 12.14 5 5 5 Z " fill="#000000" transform="translate(7,77)"/>
<path d="M0 0 C2.31243792 -0.02685412 4.6249627 -0.04632841 6.9375 -0.0625 C8.22527344 -0.07410156 9.51304688 -0.08570313 10.83984375 -0.09765625 C14 0 14 0 15 1 C15.09975032 3.51136104 15.13882183 5.98903415 15.125 8.5 C15.13080078 9.55380859 15.13080078 9.55380859 15.13671875 10.62890625 C15.12661378 15.87338622 15.12661378 15.87338622 14 17 C11.64686445 17.07271741 9.29166332 17.08370868 6.9375 17.0625 C5.64714844 17.05347656 4.35679688 17.04445313 3.02734375 17.03515625 C2.02832031 17.02355469 1.02929688 17.01195313 0 17 C-1.42597611 14.14804778 -1.1320252 11.67538825 -1.125 8.5 C-1.12757812 7.3346875 -1.13015625 6.169375 -1.1328125 4.96875 C-1 2 -1 2 0 0 Z M5 6 C5 7.98 5 9.96 5 12 C6.32 12 7.64 12 9 12 C9 10.02 9 8.04 9 6 C7.68 6 6.36 6 5 6 Z " fill="#000000" transform="translate(76,39)"/>
<path d="M0 0 C3.61328125 0.03255208 7.2265625 0.06510417 10.83984375 0.09765625 C10.83984375 5.37765625 10.83984375 10.65765625 10.83984375 16.09765625 C0 16.1953125 0 16.1953125 -3.16015625 16.09765625 C-4.16015625 15.09765625 -4.16015625 15.09765625 -4.29296875 11.97265625 C-4.29039063 10.69390625 -4.2878125 9.41515625 -4.28515625 8.09765625 C-4.28773437 6.81890625 -4.2903125 5.54015625 -4.29296875 4.22265625 C-4.11891544 0.12728416 -4.11891544 0.12728416 0 0 Z M1.83984375 5.09765625 C1.83984375 7.07765625 1.83984375 9.05765625 1.83984375 11.09765625 C3.15984375 11.09765625 4.47984375 11.09765625 5.83984375 11.09765625 C5.83984375 9.11765625 5.83984375 7.13765625 5.83984375 5.09765625 C4.51984375 5.09765625 3.19984375 5.09765625 1.83984375 5.09765625 Z " fill="#000000" transform="translate(79.16015625,76.90234375)"/>
</svg>
